<?xml version="1.0" encoding="UTF-8" standalone="no"?>
<!-- Created with Inkscape (http://www.inkscape.org/) -->

<svg
   xmlns:dc="http://purl.org/dc/elements/1.1/"
   xmlns:cc="http://creativecommons.org/ns#"
   xmlns:rdf="http://www.w3.org/1999/02/22-rdf-syntax-ns#"
   xmlns:svg="http://www.w3.org/2000/svg"
   xmlns="http://www.w3.org/2000/svg"
   xmlns:sodipodi="http://sodipodi.sourceforge.net/DTD/sodipodi-0.dtd"
   xmlns:inkscape="http://www.inkscape.org/namespaces/inkscape"
   width="297mm"
   height="210mm"
   viewBox="0 0 1052.3622 744.09448"
   id="svg2"
   version="1.1"
   inkscape:version="0.91 r13725"
   sodipodi:docname="BIKE.svg">
  <defs
     id="defs4" />
  <sodipodi:namedview
     id="base"
     pagecolor="#ffffff"
     bordercolor="#666666"
     borderopacity="1.0"
     inkscape:pageopacity="0.0"
     inkscape:pageshadow="2"
     inkscape:zoom="0.92693176"
     inkscape:cx="533.80499"
     inkscape:cy="360.09218"
     inkscape:document-units="px"
     inkscape:current-layer="layer1"
     showgrid="false"
     inkscape:window-width="1920"
     inkscape:window-height="1017"
     inkscape:window-x="-8"
     inkscape:window-y="-8"
     inkscape:window-maximized="1" />
  <metadata
     id="metadata7">
    <rdf:RDF>
      <cc:Work
         rdf:about="">
        <dc:format>image/svg+xml</dc:format>
        <dc:type
           rdf:resource="http://purl.org/dc/dcmitype/StillImage" />
        <dc:title></dc:title>
      </cc:Work>
    </rdf:RDF>
  </metadata>
  <g
     inkscape:label="Camada 1"
     inkscape:groupmode="layer"
     id="layer1"
     transform="translate(0,-308.26772)">
    <path
       style="fill:#000000;fill-rule:evenodd;stroke:none;stroke-width:1px;stroke-linecap:butt;stroke-linejoin:miter;stroke-opacity:1"
       d="m 428.4138,413.29396 c -3.39702,0.0375 -6.79487,0.30733 -10.11946,0.70153 -32.88222,6.52975 -44.48036,32.66521 -36.74559,54.96354 3.68843,8.26706 8.45653,13.63284 15.29002,17.65878 -30.36889,12.14082 -58.32318,25.6457 -78.42834,43.58777 -12.80374,11.42616 -22.42687,24.64975 -27.46857,40.46315 -2.89686,12.48196 -3.14063,22.53226 -1.06989,30.83388 -15.20932,-4.08341 -29.51519,-9.00615 -46.21934,-11.43007 a 7.5151254,7.5151254 0 0 0 -0.37865,-0.044 c -16.43859,-1.54013 -28.01073,-0.32422 -36.42119,4.5688 -8.41054,4.89303 -11.85889,14.78504 -10.23398,23.33272 3.2399,17.04153 19.0152,33.46255 37.3136,46.39245 11.10106,8.99412 23.28487,17.59686 35.86355,25.62226 a 98.905513,130.26931 33.311817 0 0 -59.67472,93.97517 98.905513,130.26931 33.311817 0 0 78.78648,121.66388 98.905513,130.26931 33.311817 0 0 133.01614,-121.66388 98.905513,130.26931 33.311817 0 0 2.23966,-46.96044 c 11.58679,3.55792 23.62564,5.76003 35.85175,5.10156 -0.2343,6.04901 -0.70432,12.1931 -1.28127,18.3882 -1.31194,13.54353 -3.71481,25.81293 -5.90728,38.32918 -1.76888,9.17223 5.8283,11.00527 11.65021,3.06592 12.68998,-18.00205 22.82258,-41.54578 30.39948,-70.62631 40.14276,-26.05439 53.68299,-70.28089 77.48755,-102.10302 12.99776,-17.16016 27.05835,-30.3884 39.14222,-34.55144 6.04419,-2.08229 11.39194,-2.20714 17.08348,-0.0279 5.69146,2.17924 11.96867,6.97099 18.54968,15.8565 a 7.5151254,7.5151254 0 0 0 0.37572,0.46818 c 0.91916,1.05333 1.8825,2.49048 2.87072,4.20188 A 96.410816,126.01676 35.433833 0 0 575.82613,715.93392 96.410816,126.01676 35.433833 0 0 653.14205,832.83821 96.410816,126.01676 35.433833 0 0 783.67634,715.93392 96.410816,126.01676 35.433833 0 0 706.3605,599.0267 96.410816,126.01676 35.433833 0 0 686.92585,601.07261 C 683.6323,590.84283 679.58979,581.35526 674.6152,572.8805 a 7.5151254,7.5151254 0 0 0 -0.30381,-0.47553 C 641.37912,524.87575 606.53452,511.0999 574.46272,493.91646 a 7.5151254,7.5151254 0 0 0 -3.61193,-0.88793 l 0,0 a 7.5151254,7.5151254 0 0 0 -5.14998,12.92414 l 36.53128,35.17666 c 3.81565,3.97062 3.36606,7.9531 2.96908,8.62979 -0.19883,0.33891 0.0541,0.29898 -0.76324,0.37865 -0.81688,0.0797 -3.0331,-0.16523 -6.46206,-2.2822 a 7.5151254,7.5151254 0 0 0 -0.32282,-0.18932 c -30.20665,-16.6296 -59.35333,-18.10282 -84.85666,-5.20429 -24.1219,12.19985 -44.68618,36.30561 -63.00923,69.87633 -0.61851,-0.19208 -1.26287,-0.40456 -1.86537,-0.58558 -65.0484,-14.79724 -81.70214,-36.50806 -55.18661,-64.38586 37.53813,-35.20138 84.30225,-53.26576 144.71331,-45.98885 17.3833,3.75073 21.5879,-10.43228 3.06594,-16.55657 -16.41913,-3.02283 -36.98462,-6.32805 -59.6615,-7.41017 5.59513,-17.01446 -0.87114,-30.65921 -14.38739,-42.72773 -8.62838,-17.35245 -23.32988,-21.55219 -38.05031,-21.38955 z m 187.63038,121.10764 0,0 c 15.38073,10.56002 30.50408,24.41052 45.71295,46.29265 4.13388,7.08531 7.56021,15.31763 10.41003,24.41438 a 96.410816,126.01676 35.433833 0 0 -8.1733,3.06885 c -1.58148,-2.62351 -3.2638,-4.99634 -5.07078,-7.08141 -7.6857,-10.2723 -15.98585,-17.15759 -24.9647,-20.59555 -9.08947,-3.4803 -18.62866,-3.15082 -27.35262,-0.1453 -17.44808,6.01105 -32.44399,21.48447 -46.24128,39.70437 a 7.5151254,7.5151254 0 0 0 -0.0263,0.0337 c -22.32851,29.8404 -34.9964,64.44247 -60.19427,87.94018 0.82711,-4.19939 1.60988,-8.49446 2.34824,-12.88597 5.6971,-48.10224 -16.91418,-67.83703 -38.53318,-77.55069 17.21355,-30.96679 35.96604,-51.78731 55.6123,-61.72354 21.18062,-10.71229 43.70255,-9.97379 70.82733,4.95919 l -0.32432,-0.18932 c 5.35903,3.30857 10.65839,4.95585 15.81536,4.45285 5.15688,-0.50299 9.84187,-3.59996 12.26668,-7.73305 4.11751,-7.01845 2.93467,-15.71162 -2.11492,-22.9614 z m -384.31912,70.11703 c 2.96457,-0.0148 6.2848,0.12417 9.9712,0.46378 19.11289,2.80762 36.55382,10.06064 58.50354,14.51067 5.8685,5.80954 13.79646,10.43675 23.47362,14.55616 14.92024,6.3513 32.97533,10.27484 50.66334,14.49599 19.48169,3.10853 36.73071,6.42749 50.4343,12.79939 26.21479,16.70422 34.13118,39.97299 35.25158,65.85204 -12.65872,0.90435 -25.35388,-2.21217 -38.78274,-7.07408 -0.40675,-0.2575 -0.8129,-0.51594 -1.21958,-0.77345 a 98.905513,130.26931 33.311817 0 0 -76.88294,-57.09457 98.905513,130.26931 33.311817 0 0 -7.70073,0.43736 c -7.0935,-5.25113 -15.73796,-14.46984 -26.07871,-20.88908 -5.18071,-3.21604 -10.99353,-5.80459 -17.54869,-6.24045 -6.55517,-0.43587 -13.60621,1.59032 -19.93804,6.28155 a 7.5151254,7.5151254 0 0 0 -0.87032,0.75437 c -4.08413,4.13011 -6.49903,9.88782 -6.11865,15.86971 0.3543,5.57088 3.19398,10.98088 7.79766,15.36337 -10.39899,-6.82487 -20.41497,-13.97341 -29.5145,-21.36019 a 7.5151254,7.5151254 0 0 0 -0.40803,-0.30674 c -16.36699,-11.53538 -29.7328,-28.39257 -31.37687,-37.04058 -0.82208,-4.32401 -0.63489,-5.40555 3.02776,-7.53639 2.73516,-1.59124 8.42317,-3.02447 17.3168,-3.06886 z m 497.00979,20.52363 a 63.706511,85.280277 29.973187 0 1 50.24801,80.43757 63.706511,85.280277 29.973187 0 1 -84.83322,80.43902 63.706511,85.280277 29.973187 0 1 -50.24794,-80.43902 63.706511,85.280277 29.973187 0 1 22.18356,-46.14736 c 1.03014,3.93873 2.03504,7.98184 2.99838,12.11693 6.61558,28.39632 12.46004,60.90655 18.22822,87.02144 a 7.5151254,7.5151254 0 0 0 14.85118,-1.73624 c -0.59844,-39.27237 -0.71446,-83.40027 -7.27955,-122.1482 a 63.706511,85.280277 29.973187 0 1 33.85136,-9.54414 z m -48.08907,19.44345 c 0.99746,6.9436 1.83832,14.08021 2.5361,21.36313 -1.58185,-6.74439 -3.16212,-13.24726 -4.80506,-19.42583 a 63.706511,85.280277 29.973187 0 1 2.26896,-1.9373 z m -390.93086,6.04085 c 0.36587,-0.004 0.73197,0.008 1.1007,0.0323 3.12568,0.20784 6.69839,1.57909 10.61849,4.01256 4.68063,2.90563 9.56534,7.22089 14.62808,11.62086 a 98.905513,130.26931 33.311817 0 0 -19.32457,7.15773 l -13.33508,-9.97122 c -2.71569,-2.38554 -3.42392,-4.36234 -3.51943,-5.86474 -0.0888,-1.39609 0.40495,-2.68871 1.56449,-3.99641 3.16678,-2.20638 5.70589,-2.96677 8.26732,-2.99107 z m 85.03565,39.6075 a 65.241546,88.311395 28.197135 0 1 33.16161,21.52751 c -11.04282,-7.02894 -22.08384,-14.15002 -33.16161,-21.52751 z M 350.05,691.56209 c 21.54551,14.8858 42.76032,28.35662 63.87518,41.72239 a 7.5151254,7.5151254 0 0 0 1.43683,0.7074 c 0.73039,0.26728 1.46973,0.51603 2.20441,0.77492 a 65.241546,88.311395 28.197135 0 1 -0.42569,38.27488 65.241546,88.311395 28.197135 0 1 -86.4461,83.71335 65.241546,88.311395 28.197135 0 1 -51.2034,-83.71335 65.241546,88.311395 28.197135 0 1 32.41897,-58.92913 c 13.81322,7.14679 27.19917,13.3768 39.23029,18.39847 a 7.5151254,7.5151254 0 0 0 7.39406,-12.95349 l -27.1193,-20.27854 a 65.241546,88.311395 28.197135 0 1 18.63475,-7.7169 z"
       id="path4163"
       inkscape:connector-curvature="0" />
  </g>
</svg>
