<?xml version="1.0" standalone="no"?>
<!DOCTYPE svg PUBLIC "-//W3C//DTD SVG 20010904//EN"
 "http://www.w3.org/TR/2001/REC-SVG-20010904/DTD/svg10.dtd">
<svg version="1.0" xmlns="http://www.w3.org/2000/svg"
 width="1280.000000pt" height="1280.000000pt" viewBox="0 0 1280.000000 1280.000000"
 preserveAspectRatio="xMidYMid meet">
<metadata>
Created by potrace 1.16, written by Peter Selinger 2001-2019
</metadata>
<g transform="translate(0.000000,1280.000000) scale(0.100000,-0.100000)"
fill="#000000" stroke="none">
<path d="M6025 12794 c-22 -2 -92 -9 -155 -14 -585 -55 -1143 -213 -1607 -455
-776 -407 -1333 -1068 -1573 -1870 l-27 -90 -449 -5 c-435 -5 -450 -6 -489
-26 -144 -78 -181 -251 -77 -366 71 -78 65 -78 520 -78 376 0 402 -1 402 -17
0 -10 -5 -49 -11 -88 -5 -38 -14 -110 -19 -160 -6 -56 -10 -1848 -10 -4743 l0
-4653 21 -50 c25 -58 82 -111 136 -127 21 -6 92 -19 158 -29 173 -26 754 -26
935 0 246 35 473 90 687 167 137 49 378 171 502 255 l113 75 2598 0 c2791 0
2646 -3 2719 49 17 12 43 43 58 69 24 39 28 58 28 117 -1 100 -37 164 -120
208 l-40 22 -1021 5 -1020 5 973 789 c536 435 982 804 993 820 33 55 44 121
30 184 -17 77 -92 153 -167 171 -69 17 -134 6 -191 -33 -68 -46 -2333 -1883
-2357 -1912 l-21 -24 -997 2 -997 3 40 60 c223 330 359 717 437 1235 16 106
17 308 20 2600 4 2746 9 2530 -59 2599 -57 58 -126 80 -212 67 -62 -10 -111
-47 -198 -151 -104 -123 -373 -385 -488 -474 -241 -187 -472 -310 -687 -365
-495 -128 -955 126 -1334 736 l-69 111 0 760 0 760 38 -56 c388 -571 1160
-826 1835 -606 387 126 662 360 874 741 l59 106 47 -82 c140 -244 208 -472
228 -760 5 -78 16 -160 25 -183 19 -52 89 -118 140 -132 49 -14 258 -14 303
-1 56 16 106 57 136 111 24 45 28 66 36 192 15 255 66 453 175 672 35 72 72
140 82 153 l18 23 67 -118 c205 -361 484 -594 863 -721 482 -161 1045 -75
1463 225 118 85 259 223 339 331 l62 84 0 -760 0 -759 -112 -109 c-545 -531
-1115 -790 -1632 -744 -361 33 -687 172 -1016 437 -112 89 -299 278 -380 384
-88 114 -129 153 -177 167 -58 17 -132 14 -179 -7 -49 -22 -111 -92 -124 -140
-6 -23 -10 -969 -10 -2692 l0 -2655 26 -52 c31 -63 95 -111 161 -120 67 -10
378 4 528 23 941 121 1791 572 2419 1285 528 599 848 1326 942 2142 21 185 31
1527 23 3153 -4 987 -7 1146 -22 1255 -9 69 -19 135 -22 148 l-5 22 412 0
c466 0 459 -1 530 78 99 109 68 282 -62 356 l-55 31 -455 3 -455 4 -53 161
c-113 350 -284 669 -515 961 -96 122 -360 386 -475 476 -591 461 -1259 719
-2112 816 -136 15 -833 29 -945 18z m781 -479 c755 -72 1404 -307 1909 -690
347 -263 606 -576 786 -950 57 -120 129 -296 129 -318 0 -4 -310 -7 -690 -7
-569 0 -709 -3 -801 -16 -481 -67 -917 -296 -1285 -675 -179 -185 -305 -359
-397 -550 -29 -59 -54 -108 -57 -108 -3 0 -25 43 -50 97 -93 198 -264 427
-471 627 -290 280 -626 472 -989 565 -214 54 -203 54 -997 60 l-741 5 39 105
c293 789 970 1388 1894 1679 258 81 575 146 835 170 63 6 131 13 150 14 111
11 593 5 736 -8z m-3277 -2514 c7 -49 27 -132 45 -184 52 -150 106 -237 221
-352 86 -87 113 -108 195 -148 134 -67 227 -89 375 -89 90 0 140 6 199 21 161
43 312 134 433 264 79 84 116 139 173 254 l46 93 90 -59 c49 -33 102 -71 119
-84 l29 -25 -17 -56 c-27 -85 -120 -262 -176 -337 -168 -221 -433 -378 -716
-424 -565 -92 -1136 267 -1279 804 -28 104 -51 313 -41 372 l7 39 142 0 142 0
13 -89z m6044 43 c2 -25 1 -92 -3 -148 -23 -285 -122 -501 -319 -696 -355
-352 -886 -440 -1326 -218 -167 84 -316 212 -414 356 -50 74 -125 225 -148
300 l-17 54 29 25 c17 13 70 51 120 84 l90 60 33 -72 c111 -245 332 -450 565
-524 217 -69 456 -45 655 66 150 83 300 261 369 434 30 75 73 256 73 304 0 20
5 21 144 21 l143 0 6 -46z m207 -4299 c-37 -644 -232 -1218 -588 -1740 -512
-750 -1319 -1272 -2207 -1429 -101 -18 -347 -48 -352 -43 -2 2 -2 983 -1 2181
l3 2177 55 -47 c156 -134 375 -277 555 -364 646 -311 1355 -278 2009 92 133
75 298 186 422 284 l109 85 3 -508 c2 -279 -2 -589 -8 -688z m-4215 -3140
c-97 -865 -489 -1452 -1156 -1734 -197 -83 -377 -132 -634 -173 -142 -22 -586
-37 -709 -23 l-66 7 0 3061 0 3061 63 -60 c246 -241 505 -386 799 -451 127
-28 426 -25 568 6 360 77 773 297 1090 580 l55 49 3 -2092 c2 -1844 1 -2108
-13 -2231z"/>
</g>
</svg>
